# AST/ASF file generated using VICON BodyLanguage
# -----------------------------------------------
:version 1.10
:name VICON
:units
  mass 1.0
  length 0.45
  angle deg
:documentation
   .ast/.asf automatically generated from VICON data using
   VICON BodyBuilder and BodyLanguage model FoxedUp or BRILLIANT.MOD
:root
   order TX TY TZ RX RY RZ
   axis XYZ
   position 0 0 0  
   orientation 0 0 0 
:bonedata
  begin
     id 1 
     name lhipjoint
     direction 0.567149 -0.783011 0.255413 
     length 2.28399 
     axis 0 0 0  XYZ
  end
  begin
     id 2 
     name lfemur
     direction 0.34202 -0.939693 0  
     length 7.34031  
     axis 0 0 20  XYZ
    dof rx ry rz
    limits (-160.0 20.0)
           (-70.0 70.0)
           (-60.0 70.0)
  end
  begin
     id 3 
     name ltibia
     direction 0.34202 -0.939693 0   
     length 6.9833   
     axis 0 0 20   XYZ
    dof rx
    limits (-10.0 170.0)
  end
  begin
     id 4 
     name lfoot
     direction 0.136498 -0.375025 0.91691   
     length 2.33665   
     axis -90 7.62852e-016 20   XYZ
    dof rx rz
    limits (-45.0 90.0)
           (-70.0 20.0)
  end
  begin
     id 5 
     name ltoes
     direction 1.5367e-011 -4.21617e-011 1   
     length 1.15039   
     axis -90 7.62852e-016 20   XYZ
    dof rx
    limits (-90.0 20.0)
  end
  begin
     id 6 
     name rhipjoint
     direction -0.602854 -0.758518 0.247423   
     length 2.35775  
     axis 0 0 0  XYZ 
  end
  begin
     id 7 
     name rfemur
     direction -0.34202 -0.939693 0   
     length 7.43932   
     axis 0 0 -20   XYZ
    dof rx ry rz
    limits (-160.0 20.0)
           (-70.0 70.0)
           (-70.0 60.0)
  end
  begin
     id 8 
     name rtibia
     direction -0.34202 -0.939693 0   
     length 7.11893   
     axis 0 0 -20   XYZ
    dof rx
    limits (-10.0 170.0)
 end
 begin
     id 9 
     name rfoot
     direction -0.131771 -0.362037 0.922803   
     length 2.53019  
     axis -90 -7.62852e-016 -20   XYZ
    dof rx rz
    limits (-45.0 90.0)
           (-20.0 70.0)
  end
  begin
     id 10 
     name rtoes
     direction -1.53733e-011 -4.21932e-011 1   
     length 1.24596   
     axis -90 -7.62852e-016 -20   XYZ
    dof rx
    limits (-90.0 20.0)
  end
  begin
     id 11 
     name lowerback
     direction 0.0235427 0.999023 -0.0374125   
     length 2.21768   
     axis 0 0 0   XYZ
    dof rx ry rz
    limits (-20.0 45.0)
           (-30.0 30.0)
           (-30.0 30.0)
  end
  begin
     id 12 
     name upperback
     direction 0.0302156 0.996818 -0.073759   
     length 2.20352   
     axis 0 0 0   XYZ
    dof rx ry rz
    limits (-20.0 45.0)
           (-30.0 30.0)
           (-30.0 30.0)
  end
  begin
     id 13 
     name thorax
     direction 0.0187169 0.998235 -0.0563532   
     length 2.22103   
     axis 0 0 0   XYZ
    dof rx ry rz
    limits (-20.0 45.0)
           (-30.0 30.0)
           (-30.0 30.0)
  end
  begin
     id 14 
     name lowerneck
     direction -0.119528 0.987423 0.103481   
     length 1.72948   
     axis 0 0 0   XYZ
    dof rx ry rz
    limits (-20.0 45.0)
           (-30.0 30.0)
           (-30.0 30.0)
  end
  begin
     id 15 
     name upperneck
     direction 0.248049 0.963095 -0.104496   
     length 1.74979   
     axis 0 0 0   XYZ
    dof rx ry rz
    limits (-20.0 45.0)
           (-30.0 30.0)
           (-30.0 30.0)
  end
  begin
     id 16
     name head
     direction 0.0903589 0.994284 -0.056876  
     length 1.78268  
     axis 0 0 0   XYZ
    dof rx ry rz
    limits (-20.0 45.0)
           (-30.0 30.0)
           (-30.0 30.0)
  end
  begin
     id 17 
     name lclavicle
     direction 0.946008 0.242039 -0.215608  
     length 3.80783  
     axis 0 0 0   XYZ
    dof ry rz
    limits (-20.0 10.0)
           (0.0 20.0)
  end
  begin
     id 18 
     name lhumerus
     direction 1 -4.48991e-011 -2.25695e-027   
     length 4.83125   
     axis 180 -30 -90   XYZ
    dof rx ry rz
    limits (-60.0 90.0)
           (-90.0 90.0)
           (-90.0 90.0)
  end
  begin
     id 19
     name lradius
     direction 0.999991 0.00366712 -0.00211721   
     length 3.00391   
     axis 180 -30 -90   XYZ
    dof rx
    limits (-10.0 170.0)
  end
  begin
     id 20
     name lwrist
     direction 0.999991 0.00393016 -0.00141978   
     length 1.50195   
     axis -1.00488e-014 90 90   XYZ
    dof ry
    limits (-180.0 0.0)
 end
  begin
     id 21 
     name lhand
     direction 1 -4.49123e-011 2.72098e-026   
     length 1.2717   
     axis -1.73687e-014 90 90   XYZ
    dof rx rz
    limits (-90.0 90.0)
           (-45.0 45.0)
  end
  begin
     id 22 
     name lfingers
     direction 1 -4.48678e-011 5.4479e-026   
     length 1.02528   
     axis -3.47372e-014 90 90   XYZ
    dof rx
    limits (0.0 90.0)
  end
  begin
     id 23
     name lthumb
     direction 0.707107 -6.34851e-011 0.707107   
     length 1.4721   
     axis -90 45 -1.62303e-014   XYZ
    dof rx rz
    limits (-45.0 45.0)
           (-45.0 45.0)
  end
  begin
     id 24 
     name rclavicle
     direction -0.981723 0.189447 -0.0181673   
     length 3.74989  
     axis 0 0 0   XYZ 
    dof ry rz
    limits (-10.0 20.0)
           (-20.0 0.0)
  end
  begin
     id 25 
     name rhumerus
     direction -1 -4.48985e-011 2.38206e-027  
     length 4.61118   
     axis 180 30 90   XYZ
    dof rx ry rz
    limits (-90.0 60.0)
           (-90.0 90.0)
           (-90.0 90.0)
  end
  begin
     id 26 
     name rradius
     direction -1 -4.48977e-011 7.41019e-027   
     length 2.91491   
     axis 180 30 90   XYZ
    dof rx
    limits (-10.0 170.0)
  end
  begin
     id 27 
     name rwrist
     direction -1 -4.48549e-011 1.3624e-026   
     length 1.45745   
     axis -1.00488e-014 -90 -90   XYZ
    dof ry
    limits (-180.0 0.0)
  end
  begin
     id 28
     name rhand
     direction -1 -4.49107e-011 2.72109e-026   
     length 1.30769   
     axis -1.73687e-014 -90 -90   XYZ
    dof rx rz
    limits (-90.0 90.0)
           (-45.0 45.0)
  end
  begin
     id 29
     name rfingers
     direction -1 -4.48919e-011 5.44468e-026   
     length 1.05429   
     axis -3.47372e-014 -90 -90   XYZ
    dof rx
    limits (0.0 90.0)
  end
  begin
     id 30
     name rthumb
     direction -0.707107 -6.35315e-011 0.707107   
     length 1.51376   
     axis -90 -45 1.62303e-014   XYZ
    dof rx rz
    limits (-45.0 45.0)
           (-45.0 45.0)
  end
:hierarchy
  begin
    root lhipjoint rhipjoint lowerback
    lhipjoint lfemur
    lfemur ltibia
    ltibia lfoot
    lfoot ltoes
    rhipjoint rfemur
    rfemur rtibia
    rtibia rfoot
    rfoot rtoes
    lowerback upperback
    upperback thorax
    thorax lowerneck lclavicle rclavicle
    lowerneck upperneck
    upperneck head
    lclavicle lhumerus
    lhumerus lradius
    lradius lwrist
    lwrist lhand lthumb
    lhand lfingers
    rclavicle rhumerus
    rhumerus rradius
    rradius rwrist
    rwrist rhand rthumb
    rhand rfingers
  end

#!OML:ASF X:\für Bonn\!DataBase\2005_08_11_Bastian_Final\c3d\Bastian.ASF
:FULLY-SPECIFIED
:DEGREES
21
root -1.29245 17.3822 19.9746 -911.694 -28.2982 -179.166
lowerback 10.7775 -0.208985 2.55202
upperback 10.8261 -1.45252 1.04113
thorax 5.33517 -1.15348 -0.303258
lowerneck -7.07928 -10.1912 -11.8802
upperneck -2.14112 -12.9585 11.0918
head 2.00366 -6.35074 4.57764
rclavicle -6.58971e-014 7.55382e-015
rhumerus -26.6512 11.9698 -91.9121
rradius 51.1231
rwrist -2.32821
rhand -10.8155 4.34505
rfingers 7.12502
rthumb 15.1983 -25.0768
lclavicle -6.58971e-014 7.55382e-015
lhumerus -28.1656 12.336 84.695
lradius 7.33074
lwrist 0.514294
lhand -7.93394 -4.53179
lfingers 7.12502
lthumb 17.9724 24.6578
rfemur -0.794369 7.51445 24.0622
rtibia 34.1806
rfoot -13.6268 -9.01598
rtoes -3.79062
lfemur 5.54985 -3.67462 -14.0572
ltibia 18.713
lfoot -5.90155 -15.457
ltoes -21.4754
22
root -1.34712 17.3799 19.9985 -911.758 -27.2558 -179.028
lowerback 10.8567 -0.084998 2.65334
upperback 10.8557 -1.29881 1.02746
thorax 5.32724 -1.07783 -0.382895
lowerneck -7.25666 -10.0673 -11.707
upperneck -2.05762 -12.7926 10.9994
head 2.02068 -6.26596 4.52776
rclavicle 5.53615e-014 -6.75868e-015
rhumerus -26.4909 11.4559 -92.0164
rradius 50.8664
rwrist -1.90002
rhand -10.9858 4.14904
rfingers 7.12502
rthumb 15.0342 -25.2851
lclavicle 5.53615e-014 -6.75868e-015
lhumerus -28.3878 11.5213 85.0353
lradius 7.78911
lwrist 0.370162
lhand -8.01472 -4.94975
lfingers 7.12502
lthumb 17.8947 24.247
rfemur -1.06428 7.50768 24.0125
rtibia 34.46
rfoot -13.6003 -8.31968
rtoes -5.16451
lfemur 5.77376 -2.59838 -13.8218
ltibia 18.7573
lfoot -5.9253 -15.5743
ltoes -20.8255
23
root -1.39958 17.3782 20.0216 -911.792 -26.2486 -178.928
lowerback 10.9553 0.0457339 2.71023
upperback 10.858 -1.133 1.02631
thorax 5.28002 -0.998185 -0.424622
lowerneck -7.36721 -9.95098 -11.6859
upperneck -1.97248 -12.6317 10.975
head 2.04297 -6.18301 4.52328
rclavicle 8.24956e-015 2.78299e-015
rhumerus -26.3807 10.7971 -92.059
rradius 50.5761
rwrist -1.43278
rhand -11.0779 4.04065
rfingers 7.12502
rthumb 14.9455 -25.4001
lclavicle 8.24956e-015 2.78299e-015
lhumerus -28.6339 10.6791 85.4275
lradius 8.2638
lwrist 0.242315
lhand -8.23304 -5.35926
lfingers 7.12502
lthumb 17.6846 23.8565
rfemur -1.35553 7.46285 23.9269
rtibia 34.7631
rfoot -13.6224 -7.66466
rtoes -6.44959
lfemur 5.97343 -1.57975 -13.6371
ltibia 18.7996
lfoot -6.00547 -15.6047
ltoes -20.5335
24
root -1.44956 17.3766 20.0427 -911.824 -25.2845 -178.849
lowerback 11.0398 0.165464 2.75935
upperback 10.8739 -0.983324 0.99297
thorax 5.25478 -0.925961 -0.495588
lowerneck -7.45442 -9.84107 -11.7451
upperneck -1.89543 -12.4778 11.0488
head 2.07219 -6.10268 4.56068
rclavicle -1.10325e-014 -3.06128e-014
rhumerus -26.2566 10.0206 -92.158
rradius 50.2522
rwrist -0.98575
rhand -11.1995 3.96503
rfingers 7.12502
rthumb 14.8283 -25.4844
lclavicle -1.10325e-014 -3.06128e-014
lhumerus -28.8461 9.79897 85.7447
lradius 8.80653
lwrist 0.286667
lhand -8.37145 -5.75246
lfingers 7.12502
lthumb 17.5514 23.4753
rfemur -1.64855 7.41345 23.8478
rtibia 35.0855
rfoot -13.6218 -7.07252
rtoes -7.48728
lfemur 6.194 -0.701873 -13.4924
ltibia 18.8266
lfoot -6.11006 -15.5764
ltoes -20.0574
25
root -1.49738 17.3744 20.0612 -911.85 -24.3917 -178.758
lowerback 11.0709 0.271011 2.77942
upperback 10.9007 -0.857452 0.979801
thorax 5.27064 -0.867858 -0.528992
lowerneck -7.53177 -9.73947 -11.9099
upperneck -1.79818 -12.3283 11.165
head 2.11551 -6.02305 4.62628
rclavicle -2.34566e-014 6.36111e-015
rhumerus -26.1505 9.2528 -92.2285
rradius 49.9482
rwrist -0.612737
rhand -11.2622 3.90145
rfingers 7.12502
rthumb 14.7679 -25.5524
lclavicle -2.34566e-014 6.36111e-015
lhumerus -29.0345 8.91575 86.0787
lradius 9.37942
lwrist 0.462014
lhand -8.53662 -6.1351
lfingers 7.12502
lthumb 17.3924 23.1068
rfemur -1.94237 7.3085 23.7837
rtibia 35.419
rfoot -13.6563 -6.55611
rtoes -8.25415
lfemur 6.40712 0.10904 -13.3387
ltibia 18.8276
lfoot -6.22058 -15.5663
ltoes -19.6924
26
root -1.54243 17.3731 20.077 -911.852 -23.604 -178.704
lowerback 11.0752 0.34363 2.7369
upperback 10.9184 -0.775165 0.940136
thorax 5.28941 -0.832818 -0.552587
lowerneck -7.57119 -9.61978 -12.0447
upperneck -1.731 -12.1603 11.2905
head 2.14037 -5.93566 4.69463
rclavicle -4.31363e-014 2.42517e-014
rhumerus -26.0695 8.46261 -92.3362
rradius 49.6302
rwrist -0.284879
rhand -11.3191 3.85275
rfingers 7.12502
rthumb 14.7131 -25.6051
lclavicle -4.31363e-014 2.42517e-014
lhumerus -29.2414 8.01245 86.3302
lradius 10.0029
lwrist 0.788166
lhand -8.62048 -6.45095
lfingers 7.12502
lthumb 17.3117 22.798
rfemur -2.23529 7.17477 23.6896
rtibia 35.759
rfoot -13.6811 -6.16613
rtoes -8.59928
lfemur 6.61179 0.666361 -13.2612
ltibia 18.8014
lfoot -6.28388 -15.4555
ltoes -18.7774
27
root -1.58433 17.3729 20.0891 -911.866 -22.9234 -178.657
lowerback 11.0373 0.403359 2.62839
upperback 10.971 -0.723211 0.935844
thorax 5.36865 -0.820178 -0.501586
lowerneck -7.65387 -9.5286 -12.2762
upperneck -1.64102 -12.0188 11.4351
head 2.18828 -5.85936 4.77878
rclavicle -9.69075e-015 1.98785e-015
rhumerus -26.009 7.76532 -92.3802
rradius 49.3731
rwrist -0.0357497
rhand -11.3371 3.78326
rfingers 7.12502
rthumb 14.6958 -25.6759
lclavicle -9.69075e-015 1.98785e-015
lhumerus -29.2935 6.04665 87.2299
lradius 10.6372
lwrist 2.43058
lhand -8.85658 -6.59481
lfingers 7.12502
lthumb 17.0845 22.674
rfemur -2.49377 6.94915 23.5945
rtibia 36.0999
rfoot -13.7162 -5.85653
rtoes -8.52353
lfemur 6.81743 1.15173 -13.1899
ltibia 18.7594
lfoot -6.36852 -15.38
ltoes -17.8664
28
root -1.62358 17.3716 20.0978 -911.88 -22.3747 -178.607
lowerback 10.9713 0.418065 2.48833
upperback 11.0078 -0.727514 0.916568
thorax 5.44393 -0.835075 -0.445152
lowerneck -7.69531 -9.41831 -12.441
upperneck -1.53821 -11.8595 11.5286
head 2.22348 -5.77571 4.84106
rclavicle 4.4975e-014 7.95139e-016
rhumerus -25.9566 7.05451 -92.454
rradius 49.0433
rwrist 0.138811
rhand -11.3383 3.73872
rfingers 7.12502
rthumb 14.6945 -25.7205
lclavicle 4.4975e-014 7.95139e-016
lhumerus -29.4047 4.12285 88.0137
lradius 11.3152
lwrist 4.14505
lhand -8.99679 -6.69343
lfingers 7.12502
lthumb 16.9495 22.587
rfemur -2.71643 6.64286 23.506
rtibia 36.4422
rfoot -13.7455 -5.67572
rtoes -8.07676
lfemur 7.00591 1.54073 -13.1227
ltibia 18.7033
lfoot -6.37123 -15.3658
ltoes -16.4111
29
root -1.66097 17.3701 20.1038 -911.914 -21.8795 -178.536
lowerback 10.8872 0.425711 2.37007
upperback 11.0549 -0.740884 0.889973
thorax 5.54047 -0.852895 -0.408498
lowerneck -7.71261 -9.3215 -12.6555
upperneck -1.46752 -11.7189 11.7083
head 2.25604 -5.70121 4.93736
rclavicle 2.93207e-015 6.95746e-015
rhumerus -25.8889 6.30425 -92.5361
rradius 48.7037
rwrist 0.22497
rhand -11.2694 3.66027
rfingers 7.12502
rthumb 14.761 -25.7941
lclavicle 2.93207e-015 6.95746e-015
lhumerus -29.471 2.34676 88.6694
lradius 11.9444
lwrist 5.77829
lhand -9.0873 -6.68556
lfingers 7.12502
lthumb 16.8624 22.6023
rfemur -2.90513 6.27932 23.445
rtibia 36.7873
rfoot -13.8108 -5.55242
rtoes -7.50615
lfemur 7.20352 1.82823 -13.0494
ltibia 18.6518
lfoot -6.42183 -15.304
ltoes -15.0827
